PathFileType	4	(X/Y/Z)	OpenSim_Sub11_EMGPreOp_Gyro.trc
DataRate	CameraRate	NumFrames	NumMarkers	Units	OrigDataRate	OrigDataStartFrame	OrigNumFrames
100	100	27	8	m	100	2207	5885
Frame#	Time	torso_imu_offset_imu	pelvis_imu_offset_imu	tibia_r_imu_offset_imu	femur_r_imu_offset_imu	tibia_l_imu_offset_imu	femur_l_imu_offset_imu	toes_r_imu_offset_imu	toes_l_imu_offset_imu
				X1	Y1	Z1	X2	Y2	Z2	X3	Y3	Z3	X4	Y4	Z4	X5	Y5	Z5	X6	Y6	Z6	X7	Y7	Z7	X8		Y8	Z8	

2207	22.06000000	-0.00331030	-0.08880786	-0.00091654	-0.14429902	0.07150741	0.16236361	0.60619370	0.10023651	3.31581768	-0.92337059	-0.13286572	-0.79635967	-0.04026610	0.06875704	0.22130715	-0.04880762	-0.04283509	0.30179125	-0.01578378	2.50892494	1.30069166	-0.02765510	-0.05357456	0.06842177
2208	22.07000000	-0.01879414	-0.08448410	-0.01335723	-0.13190645	0.07313114	0.14421469	0.96520832	0.17180921	3.05981404	-0.68353400	-0.04236906	-0.85186671	-0.06012894	0.06572829	0.23114848	-0.07523541	-0.04607002	0.30715943	-0.03739032	2.31658768	1.29745983	-0.00259793	-0.08069314	0.06660878
2209	22.08000000	-0.02191451	-0.07550970	-0.02403338	-0.11223889	0.07048606	0.13300814	1.15638255	0.33135335	2.85213948	-0.53723393	-0.01153038	-0.82978867	-0.07466136	0.07351122	0.24566212	-0.09622021	-0.05246170	0.31118478	0.03377495	2.14664986	1.22969595	-0.03367256	-0.07475452	0.07327950
2210	22.09000000	-0.04105721	-0.05396305	-0.04164182	-0.09333378	0.06725026	0.13713161	1.25217348	0.45400574	2.67060839	-0.48962349	-0.04041650	-0.77807006	-0.08230502	0.07945770	0.25837209	-0.11012658	-0.05723320	0.31128163	0.07283040	1.99131816	1.12296972	-0.00447185	-0.07942562	0.06935808
2211	22.10000000	-0.02838448	-0.03941626	-0.05342001	-0.08854892	0.05330570	0.14132909	1.30451913	0.47895150	2.49877660	-0.50333892	-0.09276411	-0.73248939	-0.06947900	0.07831148	0.27543443	-0.12666635	-0.06116305	0.31528551	0.23453036	1.81945877	1.02423234	0.00808002	-0.06272481	0.06426317
2212	22.11000000	-0.00234983	-0.02927867	-0.05486941	-0.08759057	0.03884378	0.15622837	1.35627187	0.44454501	2.25521324	-0.57294278	-0.15937836	-0.68479911	-0.06391327	0.09652945	0.28069637	-0.12912794	-0.06663119	0.30708970	0.14143448	1.61374312	0.91367508	0.00528273	-0.07534459	0.07080854
2213	22.12000000	-0.00728248	-0.00395257	-0.06437254	-0.07699469	0.01938043	0.16771324	1.29898123	0.31779557	1.95224046	-0.66131237	-0.24774378	-0.62365666	-0.05298913	0.10559850	0.27094988	-0.12542790	-0.07024378	0.29279994	0.01331182	1.34900872	0.72500095	0.01213343	-0.08130669	0.08078596
2214	22.13000000	-0.02477327	0.02800073	-0.06872392	-0.04604433	-0.01367656	0.18317165	0.97461530	0.07855914	1.65410555	-0.68857323	-0.35959103	-0.48039454	-0.06259793	0.09956912	0.26004336	-0.12366387	-0.08099342	0.27168672	0.15235458	1.11493337	0.52040804	-0.04030773	-0.09954445	0.10255535
2215	22.14000000	-0.01112109	0.04392858	-0.06988725	0.00099590	-0.06264696	0.19000661	0.58557206	-0.05461653	1.39430538	-0.60631112	-0.47499533	-0.25934860	-0.09571702	0.09549065	0.27997543	-0.11072815	-0.09233735	0.25468928	0.24641765	0.82351144	0.40590921	-0.00030135	-0.05066590	0.10586785
2216	22.15000000	-0.00408095	0.08051250	-0.06434088	0.02924271	-0.10409096	0.18587382	0.42323836	-0.06997640	1.11766060	-0.48672295	-0.54647444	-0.08517179	-0.10717447	0.10516164	0.33330798	-0.08784805	-0.09898363	0.23805148	-0.10440915	0.50987592	0.35194093	-0.00560851	-0.06355426	0.10965332
2217	22.16000000	-0.01581110	0.12995978	-0.06388192	0.03748923	-0.13115662	0.17551460	0.33898560	-0.11950576	0.86131478	-0.37877242	-0.55604823	0.02207215	-0.06871657	0.11403587	0.35803244	-0.06594482	-0.10447992	0.22593158	-0.34909612	0.23592318	0.28569554	-0.00955504	-0.08296572	0.11736896
2218	22.17000000	-0.00898663	0.15677159	-0.05462963	0.05056445	-0.14280147	0.15965172	0.14609328	-0.18861165	0.66559482	-0.23579591	-0.52988043	0.09108748	-0.02867431	0.11381309	0.34843789	-0.02662820	-0.09623145	0.21529093	-0.23404342	0.00108624	0.19795219	-0.04141096	-0.06411441	0.12783772
2219	22.18000000	-0.02101094	0.18295464	-0.04494942	0.07708288	-0.15703722	0.13922000	-0.09463058	-0.27709323	0.50972503	-0.03003114	-0.47664466	0.10829462	-0.00109818	0.09998951	0.35195590	0.02492571	-0.08449419	0.21350524	-0.14117185	-0.24484255	0.08560656	-0.01594838	-0.07609683	0.13616070
2220	22.19000000	-0.04372665	0.20918096	-0.04593186	0.11243895	-0.17290363	0.11530118	-0.33209222	-0.37832167	0.37636425	0.21364317	-0.41519308	0.03842258	0.03043036	0.08329179	0.38923339	0.09777794	-0.06097221	0.21128399	-0.05006799	-0.53428495	-0.09756440	-0.04428908	-0.06696319	0.14890496
2221	22.20000000	-0.07203830	0.25173457	-0.03948586	0.16016518	-0.19584956	0.08465344	-0.48175052	-0.43679354	0.25003637	0.45258848	-0.35388784	-0.10455293	0.07818093	0.07907906	0.42727899	0.17939181	-0.04860435	0.20390500	1.21112698	-0.81471763	-0.27247668	-0.05015082	-0.07956042	0.16373404
2222	22.21000000	-0.07774548	0.29504087	-0.03121579	0.21877002	-0.22336608	0.05068442	-0.45680346	-0.42170158	0.10517885	0.66311887	-0.30467447	-0.27162005	0.12130375	0.07918393	0.45258859	0.26473383	-0.03413849	0.19694105	2.23007798	-0.74409816	-0.09322089	-0.05700310	-0.04757423	0.16657904
2223	22.22000000	-0.06175414	0.33979543	-0.02356118	0.27098255	-0.24975084	0.01436943	-0.31497667	-0.31781114	-0.07714836	0.82980045	-0.25747134	-0.45110160	0.16029937	0.08111444	0.46654371	0.31534436	-0.02261119	0.17877710	0.40556906	-0.56054788	0.12762962	-0.05097878	-0.06775615	0.17115856
2224	22.23000000	-0.05917238	0.37530004	-0.01795692	0.30550403	-0.26368553	-0.01878593	-0.13308732	-0.19587114	-0.25274501	0.91598060	-0.23803559	-0.67020879	0.18635279	0.08979106	0.46864363	0.34040023	-0.01253704	0.19157263	0.36625458	-0.49599650	0.01761677	-0.06006326	-0.05164275	0.16477513
2225	22.24000000	-0.04862779	0.39042654	-0.00519533	0.32641557	-0.25556311	-0.03807265	-0.12045397	-0.31715327	-0.20666764	0.89038961	-0.28171366	-0.89992437	0.16998238	0.09172096	0.47217164	0.35256594	0.00305178	0.21199591	0.77035482	-0.71334002	-0.00413083	-0.04301845	-0.11180873	0.16811055
2226	22.25000000	-0.03291858	0.38968075	0.00899279	0.34674934	-0.24434892	-0.04520923	-0.42810761	-0.52808428	0.30822373	0.80528376	-0.33685329	-1.04132416	0.12888534	0.07582293	0.49517515	0.30676914	0.01802869	0.19342449	-0.44456125	-1.00417394	0.06311760	-0.04581585	-0.04905628	0.17773574
2227	22.26000000	-0.01846460	0.39284380	0.01337959	0.34378782	-0.26096048	-0.04458682	-0.24881397	-0.34409943	0.98670159	0.68414812	-0.32151932	-1.04595751	0.09167779	0.06866823	0.52701922	0.24032458	0.01999050	0.17667595	-0.02580079	-0.97953352	0.25031216	-0.06759271	-0.09427033	0.18275617
2228	22.27000000	-0.00860284	0.40595396	0.02223738	0.30381786	-0.26737590	-0.04320339	0.94386236	0.07278706	1.05350751	0.51094113	-0.22226870	-0.91374835	0.07713196	0.08206323	0.54378433	0.18690372	0.01574110	0.17462394	0.08215033	-0.99576661	0.31752809	-0.06810486	-0.08429995	0.17815205
2229	22.28000000	0.00350353	0.41682528	0.03011700	0.24420157	-0.26454184	-0.04171763	1.81996069	0.22839066	0.59622721	0.31657939	-0.07547055	-0.76758116	0.05165020	0.08537554	0.54526724	0.14479052	0.00691968	0.15359705	-0.34343944	-1.14306210	0.21388857	-0.05437909	-0.11045970	0.17638972
2230	22.29000000	0.01986725	0.41515535	0.03309122	0.19506366	-0.26073389	-0.03610360	1.60748335	0.05968053	0.14971394	0.04967252	0.07138014	-0.72737738	-0.00260998	0.07585980	0.56893333	0.11510615	0.01595559	0.12885206	-0.45822588	-1.25245036	0.12097730	-0.04467304	-0.11353098	0.17794706
2231	22.30000000	0.03462036	0.39787985	0.03598206	0.15885331	-0.26247094	-0.03770921	1.18075469	-0.11698010	-0.09951847	-0.30088887	0.16744939	-0.68642348	-0.04839733	0.06466272	0.62824350	0.08939473	0.04599574	0.06893065	-0.56429070	-1.20298144	0.12191363	-0.07349403	-0.16388497	0.19547869
2232	22.31000000	0.04541746	0.36942694	0.03660336	0.12073953	-0.25673937	-0.05041374	1.04018085	-0.13026974	-0.21997868	-0.59173537	0.21084793	-0.60118351	-0.09624129	0.05477599	0.69847388	0.05914485	0.07742810	-0.04221895	-0.55283848	-1.16544958	0.14302966	-0.06796482	-0.15965058	0.20447641
2233	22.32000000	0.05677432	0.33828320	0.03182349	0.07340615	-0.24646449	-0.05945078	1.04587167	-0.03324969	-0.24718280	-0.66458429	0.22529651	-0.38662838	-0.12261347	0.05392260	0.76268021	0.04171153	0.09248830	-0.12589941	-0.48376534	-1.09196164	0.13425593	-0.05367017	-0.17968580	0.22170237
